<?xml version="1.0" standalone="no"?>
<!DOCTYPE svg PUBLIC "-//W3C//DTD SVG 20010904//EN"
 "http://www.w3.org/TR/2001/REC-SVG-20010904/DTD/svg10.dtd">
<svg version="1.0" xmlns="http://www.w3.org/2000/svg"
 width="3000.000000pt" height="3000.000000pt" viewBox="0 0 3000.000000 3000.000000"
 preserveAspectRatio="xMidYMid meet">

<g transform="translate(0.000000,3000.000000) scale(0.100000,-0.100000)"
fill="#000000" stroke="none">
<path d="M8065 25060 c-521 -52 -983 -213 -1440 -502 -381 -241 -697 -528
-932 -848 -274 -372 -488 -870 -558 -1300 -67 -411 -21 -873 122 -1240 80
-206 250 -487 414 -685 100 -121 365 -386 477 -475 44 -36 81 -70 81 -76 1 -6
-19 -55 -44 -109 -72 -155 -201 -484 -265 -675 -47 -140 -120 -413 -146 -545
-3 -17 -28 -26 -161 -59 -416 -102 -836 -267 -1103 -432 -296 -182 -544 -454
-686 -749 -72 -149 -104 -269 -111 -420 -20 -435 184 -843 540 -1079 88 -58
218 -126 240 -126 8 0 38 40 67 89 92 157 215 311 427 538 l102 109 -122 17
c-347 47 -553 159 -647 351 -121 246 -46 548 211 846 178 207 511 412 874 537
110 38 338 104 343 99 2 -3 8 -44 14 -93 21 -200 86 -373 169 -448 34 -30 46
-35 88 -35 60 0 81 18 81 68 0 78 61 281 149 496 22 54 43 101 45 104 3 2 117
26 253 52 721 139 1399 321 1909 515 65 24 120 43 122 40 10 -10 -195 -364
-334 -575 -415 -633 -973 -1214 -1459 -1519 -79 -50 -89 -53 -108 -41 -162
103 -229 125 -382 123 -460 -4 -924 -275 -1352 -789 -315 -378 -632 -982 -708
-1349 -37 -181 -56 -576 -34 -730 43 -310 219 -636 375 -694 91 -34 184 -25
184 19 0 10 -34 58 -75 107 -169 199 -240 377 -252 623 -15 323 106 750 316
1115 69 121 215 343 257 390 l26 30 -23 -40 c-13 -22 -27 -48 -33 -57 -6 -9
-7 -21 -2 -25 4 -4 89 -8 189 -8 139 1 216 6 327 24 165 26 438 80 585 117
130 32 438 124 446 132 12 14 -11 221 -35 315 -31 123 -77 215 -140 284 -73
81 -90 87 -216 80 -58 -4 -123 -9 -145 -12 l-40 -5 45 20 c136 64 282 77 367
34 133 -66 199 -209 237 -514 72 -575 60 -965 -50 -1700 -93 -621 -209 -1102
-420 -1740 l-74 -225 -392 -1 c-412 -1 -652 -14 -1153 -60 -616 -57 -1045
-149 -1475 -317 -255 -100 -581 -285 -785 -447 -103 -81 -287 -261 -379 -371
-257 -304 -466 -721 -522 -1039 -25 -145 -35 -346 -24 -485 31 -377 158 -687
371 -910 267 -278 547 -369 1054 -344 815 40 1538 334 2176 886 143 124 433
422 559 573 478 575 863 1271 1146 2070 26 74 50 139 54 143 4 4 83 19 176 32
302 42 592 97 802 150 50 12 92 21 92 18 0 -3 -13 -51 -29 -107 -111 -383
-218 -843 -285 -1226 -167 -951 -109 -1718 159 -2095 140 -197 378 -324 640
-342 271 -18 476 111 606 382 71 147 99 327 65 410 -25 58 -69 44 -83 -26 -11
-58 -42 -120 -109 -221 -76 -114 -142 -175 -243 -226 -65 -32 -84 -37 -141
-36 -164 1 -303 142 -359 366 -109 429 7 1338 326 2547 61 233 165 601 219
776 l24 80 132 70 c162 85 344 199 458 284 115 87 328 302 363 369 73 135 31
272 -83 272 -32 0 -46 -11 -158 -129 -161 -171 -353 -324 -544 -435 l-47 -27
25 80 c208 677 833 2447 1069 3027 68 168 79 212 65 265 -14 50 -69 112 -124
138 -32 16 -62 21 -127 21 -72 0 -93 -4 -144 -29 -129 -61 -182 -150 -407
-691 -342 -821 -599 -1478 -791 -2025 -108 -309 -367 -1091 -367 -1110 0 -35
-705 -195 -1014 -231 -53 -6 -58 -5 -53 10 4 9 34 114 67 234 165 590 261
1068 290 1442 28 373 39 1036 20 1295 -17 226 -65 562 -96 667 -4 14 20 30
114 77 486 244 892 552 1278 971 675 734 1130 1506 1435 2437 l43 132 141 98
c165 114 348 250 459 341 74 61 78 63 72 36 -15 -57 -65 -311 -83 -419 -23
-137 -26 -525 -5 -620 60 -273 175 -420 369 -470 74 -19 193 -19 268 1 209 54
478 287 779 674 32 41 56 66 53 55 -22 -70 -100 -412 -121 -525 -51 -278 -61
-390 -61 -655 1 -286 16 -389 78 -520 67 -141 155 -205 289 -213 72 -4 83 -2
141 26 324 161 894 1027 1703 2592 188 364 571 1146 705 1439 79 172 221 521
234 574 4 15 11 29 15 32 21 13 182 -285 200 -370 10 -47 8 -64 -10 -132 -92
-327 -242 -680 -495 -1163 -467 -894 -652 -1454 -591 -1790 24 -132 77 -230
174 -321 46 -43 111 -91 153 -114 68 -36 82 -40 165 -43 66 -3 107 0 149 13
145 42 296 145 450 307 247 259 672 895 921 1378 l39 75 3 -40 c10 -161 59
-352 118 -465 104 -200 295 -305 590 -326 117 -9 198 14 310 87 206 134 519
533 716 914 43 83 76 139 73 125 -2 -14 -14 -79 -26 -145 -103 -590 -329
-1530 -462 -1920 l-34 -100 -39 1 c-21 1 -115 8 -209 17 -620 60 -1286 41
-1875 -53 -69 -11 -343 -74 -610 -139 -267 -66 -573 -138 -680 -161 -486 -105
-985 -276 -1327 -455 -258 -136 -429 -258 -598 -429 -267 -270 -380 -529 -378
-871 1 -259 79 -528 214 -735 53 -81 214 -243 294 -295 228 -149 510 -225 881
-238 l72 -2 -74 -135 c-229 -419 -404 -906 -538 -1496 -25 -108 -31 -122 -214
-455 -630 -1148 -1057 -1824 -1123 -1783 -34 21 33 334 160 744 151 489 400
1160 631 1700 155 363 268 572 369 683 33 37 63 78 67 92 19 78 -57 180 -155
209 -68 20 -104 20 -167 1 -52 -15 -145 -74 -200 -126 l-31 -30 -16 101 c-19
116 -58 221 -117 314 -47 75 -93 115 -177 154 -55 26 -66 27 -203 27 -196 -1
-338 -34 -512 -120 -155 -77 -261 -158 -434 -330 -237 -236 -389 -448 -560
-780 -203 -393 -295 -673 -361 -1105 -25 -167 -23 -423 5 -554 60 -281 217
-426 460 -426 220 0 478 186 781 563 52 64 96 115 97 114 2 -1 -10 -54 -26
-117 -40 -154 -85 -386 -106 -545 -27 -196 -25 -537 3 -668 50 -228 151 -347
312 -363 77 -9 137 12 222 76 232 174 564 653 1025 1477 93 167 115 200 110
168 -23 -169 -13 -497 19 -620 26 -98 61 -146 128 -173 114 -45 203 -36 303
30 86 58 97 84 165 373 66 286 111 414 245 693 386 807 1122 1779 1485 1962
87 45 143 56 174 36 31 -21 49 -85 40 -151 -23 -176 -181 -652 -415 -1250
-251 -641 -465 -1276 -665 -1970 -229 -796 -328 -1454 -329 -2186 l0 -326
-221 -141 c-851 -542 -1736 -1038 -2330 -1307 -600 -272 -1218 -494 -1745
-625 -658 -165 -1311 -237 -2045 -227 -346 4 -352 5 -500 36 -567 120 -957
294 -1200 536 -198 196 -289 398 -302 670 -6 134 2 217 48 465 31 166 33 226
7 257 -18 23 -215 115 -318 149 -74 24 -101 28 -210 28 -126 1 -126 1 -202
-37 -103 -50 -173 -128 -238 -262 -58 -119 -87 -222 -102 -367 -26 -244 42
-533 177 -755 26 -43 63 -104 81 -136 204 -354 541 -632 1024 -845 375 -165
773 -253 1375 -304 195 -16 920 -16 1125 0 1013 80 1817 275 2858 694 811 326
1751 823 2692 1423 136 87 366 229 474 293 29 17 -21 -30 -159 -149 -180 -155
-168 -118 -99 -321 135 -394 330 -699 630 -988 555 -533 1395 -850 2569 -970
182 -19 250 -21 510 -17 376 7 563 30 860 107 669 173 1309 590 1751 1140 108
136 279 395 351 535 250 487 395 1201 362 1780 -31 535 -210 971 -533 1299
l-64 64 57 36 c75 46 245 222 352 366 187 250 442 659 689 1102 63 114 115
206 116 205 1 -1 -2 -27 -7 -57 -4 -30 -8 -130 -8 -221 -1 -134 3 -180 19
-244 30 -116 55 -155 120 -187 108 -54 208 -44 305 30 67 51 108 114 129 201
80 331 275 764 542 1209 356 591 804 1157 1075 1357 130 96 246 136 283 99 57
-56 -39 -338 -409 -1204 -460 -1078 -680 -1715 -705 -2042 -23 -308 -7 -461
63 -576 88 -147 279 -215 467 -168 267 68 589 336 959 796 460 572 1099 1608
1601 2595 145 284 166 337 149 377 -18 43 -51 61 -102 56 -24 -3 -55 -13 -68
-22 -16 -10 -66 -91 -131 -213 -223 -418 -500 -876 -843 -1393 -663 -999
-1104 -1535 -1360 -1656 -54 -26 -114 -31 -133 -12 -50 50 46 333 310 913 401
878 667 1569 754 1953 29 130 50 425 40 557 -17 220 -109 367 -282 451 l-76
36 -131 -4 c-107 -4 -147 -10 -212 -31 -155 -51 -332 -154 -495 -290 -182
-152 -437 -428 -621 -672 -39 -52 -73 -94 -75 -92 -2 2 47 156 110 343 305
907 551 1484 782 1830 89 133 104 168 104 237 0 98 -80 215 -164 239 -23 7
-75 12 -116 12 -127 1 -194 -47 -361 -255 -199 -247 -409 -594 -579 -958 -250
-536 -528 -1284 -680 -1833 -28 -101 -60 -203 -71 -228 -27 -59 -458 -837
-607 -1095 -196 -342 -391 -663 -501 -830 -105 -160 -219 -293 -240 -281 -110
68 528 1953 943 2787 87 173 150 274 222 352 86 92 86 147 1 232 -113 112
-256 101 -427 -33 -70 -55 -80 -54 -80 9 0 96 -79 299 -151 390 -77 97 -183
139 -351 139 -218 0 -445 -69 -642 -195 -193 -123 -435 -369 -621 -630 -185
-258 -403 -705 -494 -1012 -24 -83 -44 -125 -102 -215 -208 -323 -372 -523
-465 -569 -43 -20 -46 -21 -64 -4 -44 40 -15 164 148 620 253 711 344 1084
344 1410 1 221 -28 326 -114 420 -56 62 -106 94 -194 127 -50 18 -81 22 -199
22 -118 1 -153 -3 -220 -22 -288 -83 -582 -334 -844 -721 -39 -58 -71 -101
-71 -95 0 23 113 382 158 500 92 242 95 328 16 431 -48 63 -144 93 -228 72
-113 -28 -220 -152 -422 -485 -322 -534 -490 -1030 -608 -1794 -50 -323 -60
-449 -60 -745 -1 -299 11 -402 55 -506 39 -90 122 -139 234 -139 119 0 242 86
274 191 7 24 17 53 22 64 4 11 40 178 78 370 60 301 79 377 135 540 179 525
401 972 671 1352 194 273 413 453 536 441 34 -3 34 -3 33 -53 -2 -58 -41 -180
-149 -460 -161 -416 -281 -822 -336 -1130 -20 -110 -24 -162 -23 -340 1 -236
11 -301 67 -414 68 -140 249 -269 391 -279 111 -8 236 37 362 131 86 66 266
254 359 379 l80 107 12 -120 c35 -349 161 -523 406 -561 146 -22 293 25 452
144 103 77 287 265 405 413 56 71 100 120 97 110 -15 -50 -58 -231 -81 -340
-81 -391 -98 -809 -41 -1027 8 -28 12 -54 10 -56 -2 -3 -39 5 -82 17 -377 101
-946 70 -1588 -89 -661 -163 -1465 -489 -2159 -874 -197 -110 -319 -170 -635
-312 -347 -157 -571 -269 -735 -368 -70 -43 -129 -76 -131 -74 -10 10 83 543
140 810 98 450 291 1141 538 1923 314 993 476 1623 523 2025 19 173 15 454
-10 565 -20 86 -72 197 -120 251 -52 60 -137 113 -235 147 -81 28 -92 29 -201
24 -136 -6 -225 -29 -360 -93 -347 -164 -794 -589 -1133 -1076 -44 -65 -82
-116 -83 -115 -3 3 87 326 150 542 26 88 88 282 137 430 l88 270 175 42 c310
76 613 177 926 310 395 169 714 353 1060 612 351 263 715 616 998 968 43 54
111 132 152 173 140 143 300 360 395 535 21 39 46 84 57 101 l18 31 113 -24
c1086 -233 1870 -659 2248 -1222 91 -135 142 -236 198 -395 51 -144 68 -165
144 -173 53 -6 122 14 219 64 131 68 179 139 186 273 7 148 -42 288 -168 478
-275 412 -767 784 -1370 1035 -388 161 -730 262 -1326 392 -21 5 -19 12 46
154 175 382 307 745 476 1311 211 702 392 1470 533 2260 75 423 88 520 73 577
-17 67 -80 152 -137 188 -41 26 -58 30 -116 30 -62 0 -71 -3 -99 -30 -42 -40
-73 -104 -95 -195 -51 -213 -171 -513 -346 -861 -322 -644 -757 -1345 -1027
-1655 -69 -79 -145 -139 -167 -130 -95 36 24 772 239 1481 147 482 309 836
486 1060 68 86 84 121 84 185 1 101 -78 220 -173 263 -33 15 -68 21 -126 21
-73 1 -87 -3 -159 -37 -175 -83 -457 -416 -675 -797 -166 -289 -296 -574 -388
-847 -44 -132 -81 -215 -197 -440 -602 -1170 -1054 -1815 -1312 -1873 -30 -7
-37 -4 -60 23 -25 30 -26 36 -21 117 11 186 147 520 532 1310 497 1018 637
1373 639 1610 0 70 -6 101 -32 177 -62 181 -144 317 -385 638 -157 208 -235
306 -257 325 -17 14 -17 19 0 120 27 158 40 307 40 469 0 184 -12 259 -53 341
-31 63 -34 66 -121 110 -77 40 -97 45 -165 48 -210 10 -352 -137 -432 -448
-42 -158 -22 -357 56 -566 43 -114 150 -331 223 -453 l50 -83 -14 -52 c-60
-206 -178 -517 -286 -746 -87 -185 -551 -1050 -936 -1745 -698 -1259 -1131
-1944 -1202 -1900 -19 12 -10 132 20 255 126 515 376 1247 702 2060 289 719
457 1055 608 1217 32 34 61 75 65 92 16 73 -54 184 -141 222 -130 58 -267 20
-426 -120 l-45 -40 -6 82 c-14 203 -115 430 -233 520 -79 60 -142 79 -275 85
-271 11 -557 -80 -802 -255 -101 -73 -333 -296 -443 -428 -189 -225 -316 -424
-476 -740 l-100 -200 -152 -150 c-83 -83 -198 -189 -256 -236 -112 -92 -343
-260 -348 -254 -2 2 14 81 37 177 127 544 188 1022 198 1563 20 1037 -177
1877 -582 2485 -260 390 -578 612 -1005 702 -75 15 -144 20 -325 23 -126 2
-270 -1 -320 -5z m475 -545 c361 -79 614 -263 758 -550 79 -159 184 -584 229
-930 25 -197 25 -738 0 -975 -91 -842 -314 -1656 -681 -2493 l-62 -142 -68
-27 c-454 -183 -1086 -389 -1611 -523 -237 -61 -649 -155 -679 -155 -43 0 732
1671 1415 3054 76 154 81 198 33 286 -34 63 -97 136 -133 154 -34 18 -130 30
-170 21 -123 -27 -377 -403 -742 -1096 -126 -239 -491 -976 -503 -1016 -4 -13
-11 -23 -16 -23 -14 0 -267 268 -376 399 -204 244 -330 456 -379 640 -23 84
-57 503 -57 691 1 522 167 996 530 1509 356 503 882 891 1464 1080 180 58 324
89 538 115 84 10 437 -3 510 -19z m6336 -893 c37 -24 69 -188 62 -317 l-3 -60
-39 60 c-80 123 -107 213 -80 267 29 57 38 65 60 50z m-2102 -1814 c45 -45 73
-127 86 -253 18 -164 11 -197 -69 -318 -90 -136 -153 -244 -241 -412 -169
-321 -650 -1045 -917 -1380 -167 -210 -331 -354 -419 -371 -54 -10 -93 12
-117 65 -27 62 -18 174 28 356 151 592 499 1301 902 1837 252 334 476 505 667
507 41 1 52 -4 80 -31z m3451 -4028 c302 -13 515 -31 871 -75 155 -19 294 -36
310 -36 16 -1 -5 -8 -46 -15 -112 -21 -120 -24 -120 -34 0 -16 -68 -129 -182
-301 -86 -130 -114 -166 -128 -162 -38 10 -403 -106 -609 -194 -230 -98 -427
-206 -646 -354 -144 -97 -389 -290 -398 -313 -3 -8 -29 -33 -57 -55 -54 -43
-100 -54 -100 -24 0 23 116 311 213 528 185 416 357 760 418 837 34 43 37 68
9 93 -32 29 -83 24 -127 -11 -64 -51 -163 -184 -262 -350 -52 -88 -96 -161
-97 -163 -2 -2 -17 13 -33 32 -38 42 -76 51 -156 36 -156 -29 -296 -161 -405
-383 -47 -95 -90 -230 -90 -283 0 -28 -104 -186 -156 -239 -64 -64 -63 -32 3
153 79 218 93 269 99 378 6 107 -9 149 -66 177 -93 47 -213 5 -325 -114 -70
-73 -71 -72 -34 27 36 95 18 155 -46 155 -44 0 -75 -27 -133 -117 -94 -148
-137 -255 -176 -440 -22 -104 -30 -122 -111 -263 -115 -203 -237 -397 -274
-440 -40 -46 -40 -28 1 109 79 269 244 659 313 741 19 23 35 45 35 50 0 4 -9
19 -21 34 -26 33 -84 36 -122 6 l-25 -20 -7 40 c-8 47 -41 100 -75 118 -39 20
-146 10 -214 -21 -33 -15 -86 -54 -124 -90 -37 -35 -98 -87 -137 -117 -299
-229 -596 -530 -829 -840 -56 -74 -106 -136 -111 -137 -14 -4 -33 76 -46 195
-27 254 47 520 207 743 68 94 228 253 336 332 472 349 1255 604 2248 732 322
41 696 71 995 78 55 2 120 4 145 5 25 1 153 -3 285 -8z m-1036 -714 c21 -25
13 -62 -39 -176 -80 -173 -284 -462 -353 -499 -14 -7 -33 -11 -43 -7 -48 18
55 294 183 488 102 155 213 241 252 194z m1651 -52 c0 -12 -194 -248 -311
-380 -639 -713 -1550 -1271 -2429 -1488 -80 -20 -152 -38 -160 -40 -11 -2 -16
7 -18 33 -6 78 -64 156 -142 189 -44 18 -152 12 -199 -12 -57 -30 -118 -94
-181 -192 -44 -68 -68 -96 -87 -100 -40 -10 -324 4 -441 21 -258 39 -468 134
-613 277 -57 56 -149 184 -149 208 0 29 227 328 388 511 106 121 382 392 390
384 2 -2 -3 -25 -12 -52 -41 -126 -46 -274 -11 -347 22 -45 59 -66 121 -66 59
0 123 39 195 119 28 31 49 47 45 36 -34 -119 -48 -322 -25 -382 18 -49 48 -73
91 -73 33 0 47 8 95 53 60 57 179 228 264 380 l54 97 10 -64 c6 -35 16 -71 23
-79 31 -37 107 -29 136 15 8 13 26 76 40 140 13 64 41 159 61 210 72 182 198
382 273 433 33 23 72 33 72 20 0 -3 -22 -64 -50 -135 -76 -196 -101 -291 -107
-406 -7 -118 7 -160 66 -200 90 -61 194 -4 311 169 25 37 47 67 50 67 3 0 11
-13 17 -29 13 -36 51 -61 102 -68 57 -8 119 26 204 111 38 39 67 62 64 51 -27
-87 -48 -217 -44 -266 6 -67 40 -149 61 -149 9 0 16 4 16 9 0 4 31 11 68 13
96 7 151 40 295 176 346 326 792 588 1292 758 165 56 175 58 175 48z m-3392
-257 c6 -7 14 -31 17 -52 5 -37 -1 -51 -73 -172 -146 -245 -319 -463 -366
-463 -78 0 55 348 215 559 83 111 175 167 207 128z m7079 -2343 c56 -35 93
-162 95 -326 l1 -93 -89 -136 c-49 -74 -125 -204 -169 -288 -132 -251 -388
-651 -646 -1011 -167 -233 -238 -321 -353 -436 -160 -160 -262 -198 -320 -121
-51 69 -5 346 109 660 252 696 733 1458 1055 1672 81 54 126 74 200 91 58 13
81 11 117 -12z m-8983 -158 c40 -42 63 -113 77 -235 14 -127 8 -159 -50 -244
-71 -107 -174 -283 -232 -399 -119 -238 -590 -942 -824 -1232 -152 -189 -318
-326 -396 -326 -69 0 -106 76 -94 195 9 94 67 319 122 479 132 381 396 896
623 1215 276 390 500 578 694 580 43 1 52 -3 80 -33z m-5639 -2203 c-84 -200
-126 -291 -230 -498 -267 -531 -561 -956 -959 -1388 -510 -552 -1124 -872
-1886 -983 -251 -36 -484 17 -650 149 -135 107 -265 342 -311 562 -62 292 28
704 219 1000 225 350 697 664 1287 856 304 100 801 206 1185 253 234 30 803
68 1160 79 47 2 111 4 143 5 l57 2 -15 -37z m13545 -1368 c211 -30 412 -108
550 -213 154 -117 320 -320 405 -496 78 -161 88 -207 120 -587 70 -826 -318
-1787 -994 -2459 -159 -159 -276 -256 -446 -372 -457 -312 -956 -494 -1500
-547 -298 -30 -542 -24 -905 20 -809 97 -1381 337 -1721 722 -369 418 -551
881 -585 1488 l-7 127 327 218 c1194 801 1850 1208 2401 1490 738 378 1241
550 1778 608 172 19 442 19 577 1z"/>
<path d="M21423 24206 c-93 -30 -283 -196 -456 -395 -481 -557 -1084 -1622
-1522 -2686 -240 -584 -393 -1042 -439 -1320 -9 -49 -25 -196 -37 -325 -43
-478 -6 -698 143 -856 102 -108 210 -154 362 -154 220 0 445 77 674 232 272
184 679 591 982 983 50 66 94 122 96 124 2 2 -17 -56 -41 -130 -94 -277 -183
-594 -223 -794 -33 -159 -42 -277 -42 -532 0 -274 15 -376 73 -497 37 -78 134
-203 218 -282 234 -219 563 -349 967 -384 70 -6 174 -16 232 -22 164 -16 714
-22 921 -9 375 24 670 62 879 115 357 90 823 270 1160 449 1017 538 1460 1151
1264 1748 -42 128 -114 189 -270 229 -87 23 -291 28 -358 9 -43 -12 -43 -11
-7 -131 156 -524 -199 -1155 -919 -1635 -293 -195 -499 -286 -855 -376 -348
-88 -555 -123 -1035 -173 -237 -25 -265 -26 -399 -16 -462 38 -810 197 -1014
465 -111 144 -190 359 -204 548 -7 102 -8 98 162 559 441 1195 1148 2818 1774
4067 255 510 388 744 487 855 30 33 59 77 65 98 10 33 8 44 -13 91 -45 97
-115 146 -223 156 -84 8 -150 -14 -235 -77 -75 -56 -250 -230 -341 -340 -418
-502 -1012 -1541 -1479 -2585 -170 -382 -673 -1091 -1102 -1555 -385 -417
-676 -639 -897 -686 -149 -31 -187 0 -185 151 4 312 265 1027 827 2265 571
1260 1096 2265 1289 2470 18 19 43 48 56 64 58 78 -7 223 -122 271 -54 23
-161 28 -213 11z"/>
</g>
</svg>
